<?xml version="1.0" encoding="utf-8"?>
<!-- Generator: Adobe Illustrator 27.5.0, SVG Export Plug-In . SVG Version: 6.00 Build 0)  -->
<svg version="1.1" id="Layer_1" xmlns="http://www.w3.org/2000/svg" xmlns:xlink="http://www.w3.org/1999/xlink" x="0px" y="0px"
	 viewBox="0 0 191.5 67.1" style="enable-background:new 0 0 191.5 67.1;" xml:space="preserve">
<style type="text/css">
	.st0{fill:none;}
	.st1{fill:#171C28;}
	.st2{fill:#0296A6;}
	.st3{fill:#FFFFFF;}
</style>
<rect class="st0" width="201.9" height="77"/>
<g>
	<path class="st1" d="M110.6,23.2c0-0.3,0.1-0.4,0.3-0.4c0.8,0,3.8-0.1,8.1-0.1c8.1,0,9.6,3.7,9.6,6.3c0,2.4-1.2,3.9-2.2,4.6
		c1,0.5,3.2,2.1,3.2,5.4c0,4.6-4,7.3-10.7,7.3c-2.7,0-6.9-0.1-8.1-0.1c-0.2,0-0.3-0.1-0.3-0.4L110.6,23.2L110.6,23.2z M116.8,31.5
		h2.7c1,0,2,0.1,2.4,0.1c0.4-0.5,0.6-1.1,0.6-1.8c0-0.9-0.3-2.3-3.2-2.3c-0.9,0-1.9,0-2.5,0.1V31.5z M116.8,41.1
		c0.6,0,1.7,0.1,2.7,0.1c2.4,0,3.7-0.8,3.7-2.3s-1.1-2.3-3.8-2.3h-2.6C116.8,36.6,116.8,41.1,116.8,41.1z"/>
	<path class="st1" d="M148.2,41.4c0,1.1,0,2,0.1,3c0,0,0,0.1-0.1,0.1c-2.8,1.2-5.8,1.9-8.7,1.9c-4.2,0-7.7-1.7-7.7-6.1
		c0-3.8,3.3-5.9,8.4-5.9c0.8,0,1.6,0,2,0v-0.2c0-0.5-0.5-1.7-3.2-1.7c-1.7,0-3.5,0.5-5,1.1c-0.2,0.1-0.4,0-0.4-0.2v-4.1
		c0-0.2,0-0.4,0.3-0.5c1.8-0.8,4.3-1.2,6.3-1.2c5.4,0,7.9,3.1,7.9,7.4L148.2,41.4L148.2,41.4z M142.1,38.5c-0.3,0-0.6-0.1-1.6-0.1
		c-1.7,0-2.7,0.7-2.7,1.8c0,1.2,0.9,1.9,2.6,1.9c0.6,0,1.3-0.1,1.7-0.3V38.5z"/>
	<path class="st1" d="M151.8,32.3c0-1.2-0.1-3-0.1-3.9c0-0.2,0-0.4,0.3-0.4h4.8c0.4,0,0.5,0.1,0.6,0.3c0.1,0.3,0.2,0.6,0.3,1
		c1.5-1.1,3.2-1.6,5-1.6c2.9,0,6.3,1.7,6.3,7.4v10.6c0,0.3-0.1,0.4-0.4,0.4h-5.5c-0.3,0-0.4-0.1-0.4-0.4V35.2c0-1.6-0.8-2.5-2.2-2.5
		c-0.8,0-1.5,0.3-2.2,0.8v12.2c0,0.3-0.1,0.4-0.4,0.4h-5.5c-0.3,0-0.4-0.1-0.4-0.4V32.3H151.8z"/>
	<path class="st1" d="M190.1,28c0.3,0,0.4,0.2,0.2,0.5c-1.1,1.6-5,6-6.2,7.6c-0.1,0.1-0.1,0.2,0,0.3c1.9,2.5,4.9,6.6,6.9,9.3
		c0.1,0.2,0,0.4-0.3,0.4h-7c-0.3,0-0.4-0.1-0.5-0.3l-4.5-6.9v6.8c0,0.3-0.1,0.4-0.4,0.4h-5.5c-0.3,0-0.4-0.1-0.4-0.4V21.2
		c0-0.2,0-0.3,0.3-0.3h5.6c0.3,0,0.4,0.1,0.4,0.3v14.4l5.2-7.2c0.1-0.3,0.2-0.3,0.5-0.3L190.1,28L190.1,28z"/>
</g>
<path id="Background" class="st2" d="M10.2,0.3h87.7c5.6,0,10.2,4.1,10.2,9.3l0,0v48.3c0,5.1-4.6,9.3-10.2,9.3H10.2
	C4.6,67.2,0,62.9,0,57.8V9.5C0,4.4,4.6,0.3,10.2,0.3L10.2,0.3z"/>
<path id="Secur-2" class="st3" d="M20.8,46.2c5.8,0,10.1-2.5,10.1-7.4c0-3.1-1.1-5.4-6.3-7.3L23,31c-2.8-1-3.1-1.6-3.1-2.3
	c0-0.8,0.7-1.6,3-1.6c2.1-0.1,4.2,0.4,6.1,1.3c0.3,0.1,0.4-0.1,0.4-0.2v-5c0-0.3-0.1-0.4-0.3-0.5c-1.9-0.7-3.9-1-5.9-0.9
	c-6.7,0-9.5,3.7-9.5,7.4c0,3.3,1.8,5.5,5.9,7.1l1.7,0.7c2.5,1,3.1,1.4,3.1,2.3c0,0.9-0.8,1.5-3.1,1.5c-2.5,0-5-0.7-7.2-1.9
	c-0.2-0.1-0.4,0-0.4,0.2v5.2c0,0.3,0.1,0.5,0.3,0.7C16.2,45.9,18.5,46.3,20.8,46.2z M46.3,38.4c1.3,0,2.5,0,3.8-0.1
	c0.2,0,0.3-0.1,0.3-0.3c0.1-0.8,0.2-1.7,0.2-2.5c0-3.9-2.3-8.2-8.3-8.2c-6.2,0-9.2,4.7-9.2,9.7c0,4.5,2.6,9.2,9.8,9.2
	c2,0.1,4.1-0.3,5.9-1c0.2-0.1,0.3-0.2,0.3-0.5v-4c0-0.3-0.1-0.3-0.2-0.2c-1.5,0.5-3,0.8-4.6,0.8c-3.2,0-4.5-1.3-4.7-2.7h6.7V38.4z
	 M39.6,34.3c0-1.4,1.1-2.6,2.5-2.6h0.1c1.3,0,2.4,1,2.4,2.2c0,0.1,0,0.2,0,0.3c-0.5,0.1-1,0.1-1.5,0.1H39.6z M67.1,40.9
	c0-0.1-0.1-0.3-0.3-0.2C66,40.9,65.2,41,64.3,41c-2.6,0-4.9-1.3-4.9-4.4c0-2.7,1.7-4.4,4.7-4.4c0.9,0,1.8,0.1,2.6,0.3
	c0.2,0.1,0.3,0,0.3-0.3l0.1-4.3c0-0.3,0-0.3-0.2-0.4c-1.1-0.3-2.2-0.4-3.3-0.4c-6.5,0-10.8,4-10.8,9.6c0,5.5,3.9,9.4,10,9.4
	c1.4,0.1,2.7-0.1,4-0.5c0.2-0.1,0.2-0.2,0.2-0.4L67.1,40.9z M87.2,27.9c0-0.3-0.1-0.3-0.3-0.3h-5.7c-0.3,0-0.4,0.1-0.4,0.3v12.3
	c-0.6,0.5-1.3,0.8-2.1,0.8c-1.7,0-2.2-1.1-2.2-2.8V27.9c0-0.3-0.1-0.3-0.3-0.3h-5.7c-0.3,0-0.4,0.1-0.4,0.3v11.2
	c0,5.3,2.9,7.1,6.5,7.1c1.7,0.1,3.4-0.4,4.8-1.5c0.1,0.3,0.1,0.6,0.3,0.8c0.1,0.2,0.2,0.3,0.5,0.3H87c0.3,0,0.4-0.1,0.4-0.3
	c-0.1-1.3-0.2-2.6-0.2-3.8L87.2,27.9z M91.3,27.5c-0.2,0-0.3,0.1-0.3,0.3c0.1,1.5,0.2,3.6,0.2,5.2v12.4c0,0.3,0.1,0.4,0.4,0.4h5.6
	c0.3,0,0.4-0.1,0.4-0.4V35.3c1.1-1.2,3.5-1.8,5.6-1.7c0.3,0,0.4-0.1,0.4-0.4v-5.7c0-0.3-0.1-0.3-0.3-0.3c-2.3,0.1-4.5,1.2-5.9,3.1
	c-0.1-0.8-0.2-1.6-0.5-2.3c-0.1-0.3-0.2-0.4-0.5-0.4L91.3,27.5z"/>
</svg>
